<?xml version="1.0" encoding="UTF-8"?>
<!DOCTYPE svg PUBLIC "-//W3C//DTD SVG 1.1//EN" "http://www.w3.org/Graphics/SVG/1.1/DTD/svg11.dtd">
<!-- Creator: CorelDRAW (OEM Version) -->
<svg xmlns="http://www.w3.org/2000/svg" xml:space="preserve" width="1080px" height="1080px" version="1.1" style="shape-rendering:geometricPrecision; text-rendering:geometricPrecision; image-rendering:optimizeQuality; fill-rule:evenodd; clip-rule:evenodd"
viewBox="0 0 1080 1080"
 xmlns:xlink="http://www.w3.org/1999/xlink"
 xmlns:xodm="http://www.corel.com/coreldraw/odm/2003">
 <defs>
  <style type="text/css">
   <![CDATA[
    .str1 {stroke:#FEFEFE;stroke-width:2.58;stroke-miterlimit:22.9256}
    .str0 {stroke:#32B2E7;stroke-width:2.58;stroke-miterlimit:22.9256}
    .fil1 {fill:none}
    .fil0 {fill:#2B2A29}
    .fil3 {fill:#5E3487}
    .fil2 {fill:aqua}
    .fil5 {fill:#E8F4FC;fill-rule:nonzero}
    .fil4 {fill:#FEFEFE;fill-rule:nonzero;fill-opacity:0.631373}
   ]]>
  </style>
     <mask id="id0">
  <linearGradient id="id1" gradientUnits="userSpaceOnUse" x1="554.04" y1="477.41" x2="546.23" y2="477.32">
   <stop offset="0" style="stop-opacity:1; stop-color:white"/>
   <stop offset="0.4" style="stop-opacity:0.501961; stop-color:white"/>
   <stop offset="1" style="stop-opacity:0; stop-color:white"/>
  </linearGradient>
      <rect style="fill:url(#id1)" x="544.94" y="471.56" width="11.51" height="11.51"/>
     </mask>
     <mask id="id2">
  <linearGradient id="id3" gradientUnits="userSpaceOnUse" x1="500.07" y1="374.15" x2="496.36" y2="379.76">
   <stop offset="0" style="stop-opacity:1; stop-color:white"/>
   <stop offset="0.611765" style="stop-opacity:0.501961; stop-color:white"/>
   <stop offset="1" style="stop-opacity:0; stop-color:white"/>
  </linearGradient>
      <rect style="fill:url(#id3)" x="493.57" y="371.49" width="11.51" height="11.51"/>
     </mask>
     <mask id="id4">
  <linearGradient id="id5" gradientUnits="userSpaceOnUse" x1="484.75" y1="342.49" x2="481.04" y2="348.1">
   <stop offset="0" style="stop-opacity:1; stop-color:white"/>
   <stop offset="0.611765" style="stop-opacity:0.501961; stop-color:white"/>
   <stop offset="1" style="stop-opacity:0; stop-color:white"/>
  </linearGradient>
      <rect style="fill:url(#id5)" x="478.25" y="339.83" width="11.51" height="11.5"/>
     </mask>
     <mask id="id6">
  <linearGradient id="id7" gradientUnits="userSpaceOnUse" x1="466.81" y1="305.13" x2="463.1" y2="310.75">
   <stop offset="0" style="stop-opacity:1; stop-color:white"/>
   <stop offset="0.611765" style="stop-opacity:0.501961; stop-color:white"/>
   <stop offset="1" style="stop-opacity:0; stop-color:white"/>
  </linearGradient>
      <rect style="fill:url(#id7)" x="460.31" y="302.47" width="11.51" height="11.51"/>
     </mask>
     <mask id="id8">
  <linearGradient id="id9" gradientUnits="userSpaceOnUse" x1="763.04" y1="620.85" x2="393.02" y2="101.57">
   <stop offset="0" style="stop-opacity:1; stop-color:white"/>
   <stop offset="0.6" style="stop-opacity:0.501961; stop-color:white"/>
   <stop offset="1" style="stop-opacity:0; stop-color:white"/>
  </linearGradient>
      <rect style="fill:url(#id9)" x="468.28" y="178.12" width="322.19" height="442.64"/>
     </mask>
     <mask id="id10">
  <linearGradient id="id11" gradientUnits="userSpaceOnUse" x1="553.88" y1="718.84" x2="554.5" y2="858.18">
   <stop offset="0" style="stop-opacity:1; stop-color:white"/>
   <stop offset="0.721569" style="stop-opacity:0.501961; stop-color:white"/>
   <stop offset="1" style="stop-opacity:0; stop-color:white"/>
  </linearGradient>
      <rect style="fill:url(#id11)" x="219" y="698.44" width="640.27" height="87.14"/>
     </mask>
     <mask id="id12">
  <linearGradient id="id13" gradientUnits="userSpaceOnUse" x1="553.88" y1="718.84" x2="554.5" y2="858.18">
   <stop offset="0" style="stop-opacity:1; stop-color:white"/>
   <stop offset="0.721569" style="stop-opacity:0.501961; stop-color:white"/>
   <stop offset="1" style="stop-opacity:0; stop-color:white"/>
  </linearGradient>
      <rect style="fill:url(#id13)" x="219" y="698.44" width="640.27" height="87.14"/>
     </mask>
 </defs>
 <g id="Layer_x0020_1">
  <metadata id="CorelCorpID_0Corel-Layer"/>
  <g id="_1825651813264">
   <rect class="fil0" x="-0.37" y="0.03" width="1080" height="1080"/>
   <g>
    <polyline class="fil1 str0" points="463.5,312.15 446.75,341.1 381.67,453.66 "/>
    <line class="fil1 str0" x1="481.62" y1="349.28" x2="436.13" y2= "424.57" />
    <line class="fil1 str0" x1="497.03" y1="380.56" x2="456.06" y2= "452.53" />
    <polyline class="fil1 str0" points="409.83,471.26 393.74,503.56 352.71,502.81 287.82,618.44 390.01,619.18 472.09,477.88 546.08,477.47 "/>
    <polyline class="fil1 str0" points="370.48,537.95 346.61,584.95 380.93,584.95 421.21,514.08 "/>
    <circle class="fil1 str0" cx="431.14" cy="433.62" r="10.27"/>
    <circle class="fil1 str0" cx="414.39" cy="462.04" r="10.27"/>
    <circle class="fil1 str0" cx="450.25" cy="461" r="10.27"/>
    <circle class="fil1 str0" cx="374.65" cy="528.11" r="10.27"/>
    <circle class="fil1 str0" cx="426.18" cy="504.78" r="10.27"/>
    <circle class="fil1 str0" cx="377.51" cy="462.15" r="10.27"/>
    <line class="fil1 str0" x1="425.2" y1="442" x2="419.27" y2= "453" />
    <line class="fil1 str0" x1="437.43" y1="441.74" x2="444.57" y2= "452.45" />
    <line class="fil1 str0" x1="424.59" y1="463.28" x2="439.28" y2= "463.35" />
    <polyline class="fil1 str0" points="486.97,477.78 479.5,491.86 522.43,491.86 "/>
    <polyline class="fil1 str0" points="506.49,492.34 499.02,506.42 541.94,506.42 "/>
    <polyline class="fil1 str0" points="501.9,477.75 494.43,463.67 537.36,463.67 "/>
    <circle class="fil1 str0" cx="546.55" cy="506.57" r="4.46"/>
    <circle class="fil1 str0" cx="527.26" cy="491.01" r="4.46"/>
    <circle class="fil1 str0" cx="550.71" cy="477.32" r="4.46"/>
    <circle class="fil1 str0" cx="541.4" cy="463.12" r="4.46"/>
    <path class="fil1 str1" style="mask:url(#id0)" d="M550.7 472.85c2.46,0 4.46,2 4.46,4.47 0,2.46 -2,4.46 -4.46,4.46 -2.47,0 -4.47,-2 -4.47,-4.46 0,-2.47 2,-4.47 4.47,-4.47z"/>
    <circle class="fil1 str0" cx="499.33" cy="377.24" r="4.46"/>
    <path class="fil1 str1" style="mask:url(#id2)" d="M499.33 372.78c2.46,0 4.46,2 4.46,4.46 0,2.47 -2,4.47 -4.46,4.47 -2.47,0 -4.47,-2 -4.47,-4.47 0,-2.46 2,-4.46 4.47,-4.46z"/>
    <circle class="fil1 str0" cx="484.01" cy="345.58" r="4.46"/>
    <path class="fil1 str1" style="mask:url(#id4)" d="M484.01 341.12c2.46,0 4.46,1.99 4.46,4.46 0,2.47 -2,4.46 -4.46,4.46 -2.47,0 -4.47,-1.99 -4.47,-4.46 0,-2.47 2,-4.46 4.47,-4.46z"/>
    <circle class="fil1 str0" cx="466.07" cy="308.23" r="4.46"/>
    <path class="fil1 str1" style="mask:url(#id6)" d="M466.07 303.76c2.46,0 4.46,2 4.46,4.47 0,2.46 -2,4.46 -4.46,4.46 -2.47,0 -4.47,-2 -4.47,-4.46 0,-2.47 2,-4.47 4.47,-4.47z"/>
    <polygon class="fil2" points="532.76,178.06 468.28,282.08 665.3,620.59 790.39,620.73 "/>
    <polygon class="fil3" style="mask:url(#id8)" points="532.72,178.12 468.28,282.08 665.41,620.62 790.47,620.76 "/>
    <polyline class="fil1 str1" points="584.79,413.06 530.9,320.71 501.5,372.63 "/>
    <polyline class="fil1 str1" points="553.45,307.63 532.01,274.28 500.78,320.67 486.49,341.69 "/>
    <line class="fil1 str1" x1="566.56" y1="269.27" x2="634.52" y2= "385.27" />
    <line class="fil1 str1" x1="551.14" y1="303.8" x2="595.67" y2= "376.98" />
    <polyline class="fil1 str1" points="713.47,521.72 759.78,604.9 665.58,605.59 591.22,477.58 555.17,477.32 555.15,477.04 "/>
    <polyline class="fil1 str1" points="684.15,532.01 706.15,575.33 674.52,575.33 637.39,510.01 "/>
    <circle class="fil1 str1" cx="599.54" cy="384.67" r="9.47"/>
    <circle class="fil1 str1" cx="627.29" cy="434.34" r="9.47"/>
    <circle class="fil1 str1" cx="588.5" cy="422.65" r="9.47"/>
    <circle class="fil1 str1" transform="matrix(-2.0669 2.10292 2.10292 2.0669 709.88 514.416)" r="3.21"/>
    <circle class="fil1 str1" cx="632.81" cy="501.44" r="9.47"/>
    <circle class="fil1 str1" cx="636.98" cy="393.86" r="9.47"/>
    <line class="fil1 str1" x1="608.88" y1="383.92" x2="628.09" y2= "390.59" />
    <line class="fil1 str1" x1="595.4" y1="393.15" x2="589.35" y2= "413.87" />
    <line class="fil1 str1" x1="602.32" y1="393.72" x2="622.34" y2= "426.27" />
    <polyline class="fil1 str1" points="637.36,433.08 662.88,432.35 705.55,505.99 "/>
    <polyline class="fil1 str1" points="684.15,532.01 677.45,519.81 701.38,518.59 "/>
    <polyline class="fil1 str1" points="566.52,269.21 531,211.47 487.39,275.81 468.47,304.46 "/>
   </g>
   <path class="fil4" d="M442 849.52l3.53 -2.09c2.48,4.57 5.36,6.85 8.65,6.85 2.13,0 3.94,-0.68 5.45,-2.03 1.51,-1.35 2.26,-3.04 2.26,-5.05 0,-1.58 -0.63,-3.19 -1.91,-4.81 -1.28,-1.63 -3.5,-3.62 -6.67,-5.98 -2.75,-2.09 -4.63,-3.68 -5.66,-4.79 -1.02,-1.1 -1.78,-2.28 -2.26,-3.53 -0.48,-1.26 -0.73,-2.53 -0.73,-3.8 0,-2.71 0.96,-5 2.88,-6.88 1.91,-1.87 4.32,-2.81 7.22,-2.81 2.28,0 4.27,0.57 5.97,1.71 1.71,1.14 3.35,2.83 4.94,5.08l-3.37 2.61c-1.08,-1.47 -2.2,-2.69 -3.36,-3.66 -1.16,-0.97 -2.6,-1.45 -4.3,-1.45 -1.66,0 -3.02,0.5 -4.09,1.51 -1.06,1.01 -1.59,2.26 -1.59,3.77 0,1.59 0.47,2.95 1.42,4.09 0.95,1.14 3.14,2.97 6.58,5.48 3.25,2.44 5.64,4.7 7.17,6.79 1.53,2.09 2.29,4.29 2.29,6.61 0,3.02 -1.17,5.64 -3.51,7.86 -2.34,2.23 -5.06,3.34 -8.15,3.34 -5.45,0 -9.71,-2.94 -12.76,-8.82zm29.06 -29.82l0 -4.06 22.86 0 0 4.06 -9.28 0 0 37.6 -4.24 0 0 -37.6 -9.34 0zm29.01 -4.06l4.17 0 0 25.12c0,2.59 0.07,4.55 0.21,5.86 0.13,1.32 0.6,2.58 1.39,3.8 0.79,1.22 1.9,2.19 3.33,2.9 1.44,0.72 3.06,1.08 4.88,1.08 1.47,0 2.82,-0.3 4.06,-0.9 1.24,-0.6 2.28,-1.44 3.13,-2.53 0.85,-1.08 1.44,-2.27 1.77,-3.57 0.33,-1.29 0.49,-3.51 0.49,-6.64l0 -25.12 4.12 0 0 25.12c0,4.22 -0.42,7.45 -1.27,9.69 -0.85,2.24 -2.35,4.12 -4.5,5.63 -2.15,1.51 -4.67,2.26 -7.57,2.26 -2.32,0 -4.41,-0.38 -6.27,-1.13 -1.85,-0.76 -3.4,-1.81 -4.64,-3.16 -1.23,-1.36 -2.09,-2.87 -2.58,-4.53 -0.48,-1.66 -0.72,-4.58 -0.72,-8.76l0 -25.12zm37.82 41.66l0 -41.66 8.64 0c5.92,0 10.26,0.44 13.03,1.31 2.76,0.87 5.15,2.24 7.16,4.12 2.01,1.87 3.56,4.16 4.64,6.87 1.09,2.71 1.63,5.73 1.63,9.05 0,3.91 -0.84,7.46 -2.52,10.65 -1.69,3.19 -3.97,5.6 -6.85,7.22 -2.88,1.62 -7.03,2.44 -12.44,2.44l-13.29 0zm4 -3.95l4.82 0c5.03,0 8.67,-0.25 10.93,-0.75 2.27,-0.51 4.25,-1.5 5.95,-2.99 1.7,-1.49 3,-3.3 3.89,-5.43 0.89,-2.12 1.33,-4.5 1.33,-7.13 0,-2.86 -0.51,-5.45 -1.54,-7.77 -1.02,-2.32 -2.48,-4.24 -4.38,-5.75 -1.89,-1.51 -4.12,-2.52 -6.7,-3.04 -2.57,-0.53 -6.35,-0.79 -11.34,-0.79l-2.96 0 0 33.65zm38.58 -37.71l4.18 0 0 41.66 -4.18 0 0 -41.66zm11.9 21c0,-4.02 0.96,-7.73 2.9,-11.14 1.93,-3.4 4.58,-6.07 7.94,-8 3.37,-1.93 6.98,-2.9 10.85,-2.9 4.06,0 7.8,0.96 11.23,2.87 3.42,1.91 6.11,4.56 8.06,7.95 1.95,3.38 2.93,7.07 2.93,11.05 0,3.94 -0.97,7.61 -2.9,10.99 -1.93,3.39 -4.59,6.05 -7.98,7.98 -3.38,1.93 -7.04,2.9 -10.99,2.9 -3.98,0 -7.68,-0.96 -11.08,-2.87 -3.4,-1.92 -6.08,-4.56 -8.03,-7.92 -1.96,-3.37 -2.93,-7 -2.93,-10.91zm39.56 -0.17c0,-4.99 -1.73,-9.21 -5.19,-12.65 -3.46,-3.44 -7.63,-5.16 -12.5,-5.16 -4.99,0 -9.16,1.73 -12.51,5.19 -3.34,3.46 -5.01,7.73 -5.01,12.79 0,4.88 1.72,9.03 5.16,12.48 3.44,3.44 7.56,5.16 12.36,5.16 4.95,0 9.13,-1.68 12.56,-5.05 3.42,-3.36 5.13,-7.62 5.13,-12.76z"/>
   <g>
    <path class="fil5" style="mask:url(#id10)" d="M219 785.58l8.89 0 40.09 -71.31 40.01 71.31 8.93 0 -48.9 -87.14 -49.02 87.14zm206.85 -63.5c0,-13.07 -10.55,-23.64 -23.6,-23.64l-63.54 0 0 7.3 63.54 0c8.99,0 16.3,7.33 16.3,16.34 0,9 -7.29,16.34 -16.28,16.34l-63.56 0 0 47.16 7.3 0 0 -39.87 56.26 0c8.99,0 16.28,7.3 16.28,16.27l0 23.6 7.3 0 0 -23.6c0,-8.39 -4.39,-15.74 -11,-19.92 6.61,-4.17 11,-11.54 11,-19.98zm21.81 63.5l7.28 0 -0.02 -87.14 -7.26 0 0 87.14zm72.63 -87.14c-24.07,0 -43.57,19.48 -43.57,43.55l0 43.59 7.3 0 0 -43.59c0,-19.99 16.27,-36.25 36.27,-36.25 20.01,0 36.28,16.26 36.28,36.25l0 43.59 7.29 0 0 -43.59c0,-24.07 -19.49,-43.55 -43.57,-43.55zm108.93 0c-24.07,0 -43.57,19.5 -43.57,43.57 0,24.07 19.5,43.57 43.57,43.57 24.07,0 43.57,-19.5 43.57,-43.57 0,-24.07 -19.5,-43.57 -43.57,-43.57zm0 79.84c-20.01,0 -36.27,-16.26 -36.27,-36.27 0,-20.01 16.26,-36.27 36.27,-36.27 20.01,0 36.27,16.26 36.27,36.27 0,20.01 -16.26,36.27 -36.27,36.27zm99.52 -8.53l-40.06 -71.27 -8.92 -0.04 48.98 87.14 48.98 -87.14 -8.91 0 -40.07 71.31zm32.61 15.83l8.89 0 40.09 -71.31 40.01 71.31 8.93 0 -48.9 -87.14 -49.02 87.14z"/>
    <path class="fil5" style="mask:url(#id12)" d="M219 785.58l8.89 0 40.09 -71.31 40.01 71.31 8.93 0 -48.9 -87.14 -49.02 87.14zm206.85 -63.5c0,-13.07 -10.55,-23.64 -23.6,-23.64l-63.54 0 0 7.3 63.54 0c8.99,0 16.3,7.33 16.3,16.34 0,9 -7.29,16.34 -16.28,16.34l-63.56 0 0 47.16 7.3 0 0 -39.87 56.26 0c8.99,0 16.28,7.3 16.28,16.27l0 23.6 7.3 0 0 -23.6c0,-8.39 -4.39,-15.74 -11,-19.92 6.61,-4.17 11,-11.54 11,-19.98zm21.81 63.5l7.28 0 -0.02 -87.14 -7.26 0 0 87.14zm72.63 -87.14c-24.07,0 -43.57,19.48 -43.57,43.55l0 43.59 7.3 0 0 -43.59c0,-19.99 16.27,-36.25 36.27,-36.25 20.01,0 36.28,16.26 36.28,36.25l0 43.59 7.29 0 0 -43.59c0,-24.07 -19.49,-43.55 -43.57,-43.55zm108.93 0c-24.07,0 -43.57,19.5 -43.57,43.57 0,24.07 19.5,43.57 43.57,43.57 24.07,0 43.57,-19.5 43.57,-43.57 0,-24.07 -19.5,-43.57 -43.57,-43.57zm0 79.84c-20.01,0 -36.27,-16.26 -36.27,-36.27 0,-20.01 16.26,-36.27 36.27,-36.27 20.01,0 36.27,16.26 36.27,36.27 0,20.01 -16.26,36.27 -36.27,36.27zm99.52 -8.53l-40.06 -71.27 -8.92 -0.04 48.98 87.14 48.98 -87.14 -8.91 0 -40.07 71.31zm32.61 15.83l8.89 0 40.09 -71.31 40.01 71.31 8.93 0 -48.9 -87.14 -49.02 87.14z"/>
   </g>
  </g>
 </g>
</svg>
